
<global>
amp_veltrack=0
</global>

<group>
amp_veltrack=0
ampeg_decay=20
ampeg_release=0.35
ampeg_sustain=0
group_label=Group_0-45
lpc_hicc1=42
lpc_locc1=0

<region>
hikey=g#5
hivel=127
lokey=g5
lovel=1
lpc=ULnVQcvLJsLGh85Bpkf9wI4eeEBf3O5ANCgQwSxsI0AhdatAIsMpwJ4PoUDFrMXAxQidQCQulD/ihSC/P5euP8yoWb1M0cU/0bWRQHOAb8Crnw5A8Nzkv81RkEDMmrs8
lpc_rms=-31.42
pitch_keycenter=g#5
sample=Flute_invertedturn_major_PP_G#5.opus
tune=-14
</region>

<region>
hikey=g#4
hivel=127
lokey=g4
lovel=1
lpc=KH8rQoqu5sKvUuBCNpYVwhCtPsGXYzNBp7rYQF3/IsE/rCRA9ErXwHBXcUFipojBt4GOQajNWMEpfr9Au53bwACx+kBf4w9AxSPvwHZAND8SI+NAMNzlwHM7nD9x08M/
lpc_rms=-38.13
offset=1026
pitch_keycenter=g#4
sample=Flute_invertedturn_major_PP_G#4.opus
tune=-5
</region>

<region>
hikey=f#5
hivel=127
lokey=f5
lovel=1
lpc=6DyCQcVE+8F5N7RBa8auv3ccRcHcYHBB42GbwMiAgcAI2tBAapZ4wHixsz83eom/4hgvQOlFPcDXcldAlg45v+TF377/OL0/Mj7Uvu4ByL/UXwxAVsxpvy1Rjj/9MUI/
lpc_rms=-37.43
pitch_keycenter=f#5
sample=Flute_invertedturn_major_PP_F#5.opus
tune=-4
</region>

<region>
hikey=f#4
hivel=127
lokey=f4
lovel=1
lpc=heB1QneKLcPobUFDOIXXwmcT/UHjHGVAbTKFwWIBaEDwslpBHn52wLd25cA3OODAqhKUQe3phsFnSzRBoiMvwJ8hOr9tNfC/PiqxQHhyo8BZoUa/ITHtQKFGLcFzbtFA
lpc_rms=-34.91
pitch_keycenter=f#4
sample=Flute_invertedturn_major_PP_F#4.opus
</region>

<region>
hikey=G#6
hivel=127
lokey=d#6
lovel=1
lpc=MSi7QfbHt8HalRpB0A9qQIxK0MBlV1FBC5PBPlScxT9ylL5AoR8uP0Vy90A2RADAwfP2QBT91T7Ns4xAykaCQBsOeLwK5Y89WAeBwDQECkGrBxRA5o5SvgVQWUD94ijA
lpc_rms=-25.35
offset=823
pitch_keycenter=e6
sample=Flute_invertedturn_major_PP_E6.opus
tune=-27
</region>

<region>
hikey=e5
hivel=127
lokey=d#5
lovel=1
lpc=oKbfQVd6VMK5XQtCXT7MwEtDBMG8rm5BB+wIwYXQUkBdHXhAJX8NwQ2uzECSuMrA7Y8HQc4crsB6nRFAX1uoPKq+ND9UJgNAcEvjv0YApL4jqBtA15VGwPJqtr8tzZdA
lpc_rms=-35.56
pitch_keycenter=e5
sample=Flute_invertedturn_major_PP_E5.opus
tune=+4
</region>

<region>
hikey=e4
hivel=127
lokey=d#4
lovel=1
lpc=ZfaEQskxOMMT4T1D8liowr1Fu0BY9zdBI50GQKnHh8FQkRtBZPhjQN1zWsDBhxO/ck/4PzQbhcDAkMFAic8lwUbSLUE/IEjAEOypQOpXNcGOHoZAep4CQR58P8FthrFA
lpc_rms=-37.22
pitch_keycenter=e4
sample=Flute_invertedturn_major_PP_E4.opus
tune=+11
</region>

<region>
hikey=d6
hivel=127
lokey=c#6
lovel=1
lpc=0iK/QQC74sHs23VBZglOwD3xhMCLVYlBLfYkwVOR/ECIpxpAhF3OPgxl2UCK1X7AKpncQBckQj/g/H5AOJakP+IKe0CIkTo9f09XQLoW4L5eJH7A9nVUQCTKwEAAjDw/
lpc_rms=-27.31
offset=1931
pitch_keycenter=d6
sample=Flute_invertedturn_major_PP_D6.opus
tune=-12
</region>

<region>
hikey=d5
hivel=127
lokey=c#5
lovel=1
lpc=V1XxQbH0j8L6RJBCpaQhwvuGy0CpAJ9BpsS8weY2W0HafqbAQRQKwD00tEC+qJTAjqW0QN75uMC9HKtAmdDxwE76DUE/RLfATn9SQJVgRT+2rCzA77xFQEksiMBv2EhA
lpc_rms=-36.04
offset=330
pitch_keycenter=d5
sample=Flute_invertedturn_major_PP_D5.opus
tune=-10
</region>

<region>
hikey=d4
hivel=127
lokey=C4
lovel=1
lpc=piKNQc3ZPMLyBlJCTGsCwtWKAUEoGCRB9XBdwVulZUCjotZAGXv5wBcDg0B7O96/XzGTP8oEOsBbtYBAOwXJv7qNiL9c1Ow+6FsBQHVC5r/kyhI+wha6P2bCQ8BIn+c/
lpc_rms=-43.86
pitch_keycenter=d4
sample=Flute_invertedturn_major_PP_D4.opus
tune=+18
</region>

<region>
hikey=c6
hivel=127
lokey=b5
lovel=1
lpc=Qj6nQe3h8sFmlDNBkmQhQbs/VMHe+PpAkvISQNks9r8q7DJAzCIJwFXXp0DBBVzAzTWbQGiLdb/HdWe/C0GrQLmmIMBRfYs/4uZxQDgvP8AuaZhAvo7lv91GD8EEpCZB
lpc_rms=-29.49
offset=340
pitch_keycenter=c6
sample=Flute_invertedturn_major_PP_C6.opus
tune=-22
</region>

<region>
hikey=c5
hivel=127
lokey=b4
lovel=1
lpc=Njb2QYC7p8LkZsBC1nh0wsuTWkHm/LxBGtzzwYPFT0E/Bq5ABKdawWv3XUE6Hj/B7hkMQbxhuMCimQ5A7WT+PyOBVr+r962/QI9nQCjjzcCoA3xA7rSYP6zY2r9k0EE/
lpc_rms=-33.94
offset=93
pitch_keycenter=c5
sample=Flute_invertedturn_major_PP_C5.opus
tune=-16
</region>

<region>
hikey=a#5
hivel=127
lokey=a5
lovel=1
lpc=7SWWQbkz/sE3HI5Bq6/KP3DPH8Hz2DtBJ2Y7wAdb1MCJ3QVB7Au7v58VTT9wGCbAprSXQJ+Gk8DmiRFA/HV7QO18gsAm/xk/mLVkQO+kgsAA64hAiYQHwA2fpb+CQe8/
lpc_rms=-31.35
offset=42
pitch_keycenter=a#5
sample=Flute_invertedturn_major_PP_A#5.opus
tune=-8
</region>

<region>
hikey=a#4
hivel=127
lokey=a4
lovel=1
lpc=XbqzQoSRX8P3SFtDt3+/wkh+ssF365RCnpMjwotvMsHiFu1BqSjYwdZK0EBTx5hAA/i7QPLRdcH/d1RBK9E+wRyJbkHALL7AG0p1v4DJPUDfRJLAnsoCv9wdOUBvfPQ/
lpc_rms=-29.55
pitch_keycenter=a#4
sample=Flute_invertedturn_major_PP_A#4.opus
tune=-5
</region>
</group>

<group>
amp_veltrack=0
ampeg_decay=20
ampeg_release=0.35
ampeg_sustain=0
group_label=Group_46-90
lpc_hicc1=84
lpc_locc1=43

<region>
hikey=g#5
hivel=127
lokey=g5
lovel=1
lpc=yJWSQVvpB8II3OlBINgUwY/988BNeJpBe5hkwSbhtz64WiJBxsr7wCsh2EBqlZ3Arr6LQILTAcD6iwhAZDn1PozXoL94eOI/PvOLPyWWnj8Soe6/fy6FP9tBL0CJkTm/
lpc_rms=-27.18
offset=694
pitch_keycenter=g#5
sample=Flute_invertedturn_major_MF_G#5.opus
tune=-20
</region>

<region>
hikey=g#4
hivel=127
lokey=g4
lovel=1
lpc=e26dQWw0QMLdYBxCuGFgwOpwg8F6bGZBPYB8wGUz078rKxs+xi0jP9UxBkAXYHnA8WhEQK2ZM8BCWLk/J8uHPndGqT4XeS4/nG0fvgnRN8DLdT1AaDu9PwKvisDdbgFA
lpc_rms=-28.97
offset=1086
pitch_keycenter=g#4
sample=Flute_invertedturn_major_MF_G#4.opus
tune=-3
</region>

<region>
hikey=f#5
hivel=127
lokey=f5
lovel=1
lpc=9Zi+QT6UU8IwljhC+bhEwc7TCsHd71RBJbhAwTK7PkFA9qPAUumKwOETIkE6cAnB1GV7QCPCl77nbUxA620VwF1XKMCgTPRAtHx5wNRrjsDpcONAlUtBPgBPhMCN9WFA
lpc_rms=-25.37
offset=1037
pitch_keycenter=f#5
sample=Flute_invertedturn_major_MF_F#5.opus
tune=-10
</region>

<region>
hikey=f#4
hivel=127
lokey=f4
lovel=1
lpc=qCLrQUozmMIJB5VCe9cgwttXXkFiEThBf4e/wQ/rXUHyC0DA3kKOO05vtEBnli3B92wKQeFX/MA8+hRB5JxvwIHHSsASZSk/XNGmQFlzf8AZI0hANwYxwKXZ5b/33g5A
lpc_rms=-28.68
offset=561
pitch_keycenter=f#4
sample=Flute_invertedturn_major_MF_F#4.opus
tune=-4
</region>

<region>
hikey=G#6
hivel=127
lokey=d#6
lovel=1
lpc=ee72QSt2JMIREABCBolKwZAcAUFrp95Ap4lbwBJl8UDk0QZBntsGwP6yOUFNwkbAvM8XQY+vgUAxjTJAb8uLQLp/uEC2QiLANqYIwZ48v0FLMzvBbD0OQRPRIMAoIShA
lpc_rms=-19.50
offset=751
pitch_keycenter=e6
sample=Flute_invertedturn_major_MF_E6.opus
tune=-24
</region>

<region>
hikey=e5
hivel=127
lokey=d#5
lovel=1
lpc=JQrrQfFBi8L7pn9CniqiwaKOWcGtdrpBKbFywVH3+UCEbI/AdhGvP2OQMECmYKfAuZPnQJ+D/MCn0qNA4qVnv2Or5r5WfNFAUmLnwM6MK0CSy27AD1fUQGjOt8DUEXlA
lpc_rms=-26.56
offset=618
pitch_keycenter=e5
sample=Flute_invertedturn_major_MF_E5.opus
tune=-4
</region>

<region>
hikey=e4
hivel=127
lokey=C4
lovel=1
lpc=EHYXQlha0sK5V+ZCHoaLwoATt0FkcFxBHLu+wfBhOkGjkRPA7ZUGwC5xpECTdObAALvqQK5E4MBrsERBA6ltwSOprkCuFS1ANlnxvw5j7D5BKQs+J7+LP1C/JMAcfJY/
lpc_rms=-29.91
pitch_keycenter=e4
sample=Flute_invertedturn_major_MF_E4.opus
tune=-1
</region>

<region>
hikey=d6
hivel=127
lokey=c#6
lovel=1
lpc=uI9fQYS+ucFHCZ9B+6L0wLOGsr77W9tA/vSPwNfa6T8kuZ9AeSMQwP2NL0DPahQ/R3OMP6HIlj/ypwRAPbqSvSKRVj9Tobs/70g4P3mDyD+ySerAUXI4QZJyucDvKTBA
lpc_rms=-26.51
offset=496
pitch_keycenter=d6
sample=Flute_invertedturn_major_MF_D6.opus
tune=-19
</region>

<region>
hikey=d5
hivel=127
lokey=c#5
lovel=1
lpc=27XOQUkobMIaXzJCFqqcv+LVo8Fy751B3pEQwe8tD0DdT3G/vNnJwMlWRUFqXQ/BCh+BQCS0B7+gBNQ/5y+jwAzjXkCnEac//98JwKByET91xYpAgqqZwPLJAL/8DBNA
lpc_rms=-25.43
offset=576
pitch_keycenter=d5
sample=Flute_invertedturn_major_MF_D5.opus
tune=-15
</region>

<region>
hikey=c6
hivel=127
lokey=b5
lovel=1
lpc=7AO7QUzdGcKAEdlB1UrnwJmvCcH0+qVBDIFbwfWG4T98PgBB+JfGwBlX0kA4/U7A0o5kQJz/l79BRP6+giL4QEguwMDjiItAJHS+P4WjUMCtwGdAUZw1QMPlUMHp0TJB
lpc_rms=-21.67
offset=726
pitch_keycenter=c6
sample=Flute_invertedturn_major_MF_C6.opus
tune=-25
</region>

<region>
hikey=c5
hivel=127
lokey=b4
lovel=1
lpc=ERXCQd2ygsLO1H1CeK91wVy+pcH6JcJBYiFUwXGidEAY2Q69Nm4UwFVBiUCAAGvACdFiQIx+usCxpu5AguWjwJVhij/z8rs/7a03v6bJmb8oPA5AmaPpv4jeCT+Pt/I+
lpc_rms=-27.90
offset=787
pitch_keycenter=c5
sample=Flute_invertedturn_major_MF_C5.opus
tune=-15
</region>

<region>
hikey=a#5
hivel=127
lokey=a5
lovel=1
lpc=cCB3Qe6u7cFz38JBFTkEwcUQAsG62bFBiE6MwUcbWEAWmspAEegwwWETIEHDPTPAKrgjQK4gLr+HQNa/G+SyPi2UBD+AZxw/+7kKQLhNK7/0uak/s8PDwKugtUCgBLO/
lpc_rms=-25.11
offset=430
pitch_keycenter=a#5
sample=Flute_invertedturn_major_MF_A#5.opus
tune=-17
</region>

<region>
hikey=a#4
hivel=127
lokey=a4
lovel=1
lpc=Pj9FQmHWCcOJCAdDQvgBwhDEEsJKHAlCkLJVwXbXhT9RxxdBPsbBwa/D4kF5oYrBolNHQR08bMEZONlAK4XKQApQFcBVqd3AgChaQK0zdMBrbTlB69udwHqDBcFu4NJA
lpc_rms=-23.49
offset=360
pitch_keycenter=a#4
sample=Flute_invertedturn_major_MF_A#4.opus
tune=-5
</region>
</group>

<group>
amp_veltrack=0
ampeg_decay=20
ampeg_release=0.35
ampeg_sustain=0
group_label=Group_91-127
lpc_hicc1=127
lpc_locc1=85

<region>
hikey=g#5
hivel=127
lokey=g5
lovel=1
lpc=wyaKQdJf4cF6D7BB7JajwEOGzcAHEYBB0ik6wbGiVUBIIYlA5S9nwIywgUBSJZK/tEcPQBhSAr9BvCA9lJlSQBwsJr8ONt6+96tRQEjZfr9qB5g+sPjkPw2oVD8fyac/
lpc_rms=-22.37
offset=874
pitch_keycenter=g#5
sample=Flute_invertedturn_major_FF_G#5.opus
tune=-30
</region>

<region>
hikey=g#4
hivel=127
lokey=g4
lovel=1
lpc=NPdTQQh0/8FoItNBJXutwEhPicBo8rVAvArBwFBueUBtOEM/W6adwArak0B84D3A8OtqQHVVAsDJIxvAKEaBQKg/CMD3Yek+vfENv6HfF7/JYWdAOsMDwB6W3r9/mMI/
lpc_rms=-26.03
offset=962
pitch_keycenter=g#4
sample=Flute_invertedturn_major_FF_G#4.opus
tune=-13
</region>

<region>
hikey=f#5
hivel=127
lokey=f5
lovel=1
lpc=8o1oQc0NBML1zfxBWot6wXJMIEBkogdByQVHwZ558UDbkYM+YVRYwPNwZkCaIxDA7NbKP28zqD37zIK/qZqrP95A1z0RCN+/YNk/QH7EeL+oMRy/DpYwP4w6jr1rg0A/
lpc_rms=-22.25
offset=1290
pitch_keycenter=f#5
sample=Flute_invertedturn_major_FF_F#5.opus
tune=-16
</region>

<region>
hikey=G#6
hivel=127
lokey=d#6
lovel=1
lpc=20ItQsP8iMJiiT9CtUjZwPMXncAOO49B+bolwWDJMkG5Q4lAwxp/v66WQ0ElGqXAASBPQXajTsChUxRBTdQ7vcYxGUEeRlvBWZHHwHThMEKzpgvCyiGFQSPrn8Csw1xA
lpc_rms=-9.22
offset=153
pitch_keycenter=e6
sample=Flute_invertedturn_major_FF_E6.opus
tune=-41
</region>

<region>
hikey=e5
hivel=127
lokey=d#5
lovel=1
lpc=+mqDQVZlCcJnyr5BsLGCP5DtR8G6qCxBzbcvwPSX479PUEJAblBewBgiIECsp12/DvP5P6Ktg7+ETCLACN6BQFgLoL+upCm+wuOUPxpPm78TyJ8/2IfOPN+ePMDualVA
lpc_rms=-24.48
offset=1433
pitch_keycenter=e5
sample=Flute_invertedturn_major_FF_E5.opus
tune=-13
</region>

<region>
hikey=F#4
hivel=127
lokey=d#4
lovel=1
lpc=OZmJQYbDH8L/6OpBiDuewGeEcsBM8/FA5vPDwK91/D5vaGdA540lwcIRE0Hlzfm+OloSvQHDr73hNYfAghtHQMXChj0RL72/iesBQNu8Dz4HJ4Q+Fc0ZwIXMDz9fmUo/
lpc_rms=-27.68
offset=955
pitch_keycenter=e4
sample=Flute_invertedturn_major_FF_E4.opus
tune=-3
</region>

<region>
hikey=d6
hivel=127
lokey=c#6
lovel=1
lpc=AwBYQRQLt8G/9ItBDdGCwBv2JMA7qsRAQor+v/w7WT+4wg1AHuS0PbZJnj2hFw5Ahi+8P8hK9r9h/ohANX19v0GzKz4CAzZA9t0ovbBBz7+FaIPAbI84QeWP6cBqTihA
lpc_rms=-23.19
offset=548
pitch_keycenter=d6
sample=Flute_invertedturn_major_FF_D6.opus
tune=-32
</region>

<region>
hikey=d5
hivel=127
lokey=c#5
lovel=1
lpc=Rc6IQUzYFsLC1QNCwd+AwYRiTkB9qgBBiJ1AwdY2C0Hy4K6/KL+kwMCq4kAW+qLA42dzQCStM8DMZ9++QIYQQAd9Xz/j7l3AH3OXQNg5TsBcjM4+hHYaQApHmsC5e2JA
lpc_rms=-23.20
offset=470
pitch_keycenter=d5
sample=Flute_invertedturn_major_FF_D5.opus
tune=-19
</region>

<region>
hikey=d4
hivel=127
lokey=C4
lovel=1
lpc=mreAQVCXGcJaIQxCbxKNwbler0C55bZAJoAGwQa3/z8Phrk/2ugfwKwPM0DCs1a9zQtRv+bgTz3pUoW/ftTOP2yuBsCWkQY/cwxoQKgWgcDUhzNAUQwJwADYmj/2iJC+
lpc_rms=-28.86
pitch_keycenter=d4
sample=Flute_invertedturn_major_FF_D4.opus
tune=+2
</region>

<region>
hikey=c6
hivel=127
lokey=b5
lovel=1
lpc=qRdhQUBrt8EQZI9BZ0ynwKhgs7+IxOZAmIWTwPvxPUCrF0BAHJUmwNoICkCWV0o+cWgdQGv1Bj/c/W0/Nc5Ev0XGUEBEc7g+LJiQvm2JAT8LskNAxOP5v76u/b99QVlA
lpc_rms=-21.66
offset=312
pitch_keycenter=c6
sample=Flute_invertedturn_major_FF_C6.opus
tune=-42
</region>

<region>
hikey=c5
hivel=127
lokey=b4
lovel=1
lpc=GcZ3QRLJHcLtlRdCHsJHwTEvF8EwV4RBZwwvwb35gEDRiNe+OzttwBKhqkCyq0rAntxBQKNKHcCajqY/IYIFwALvxj5CViZAmBvJvzPNlL8G52dAkm0hwCHErb9SjOM/
lpc_rms=-24.42
pitch_keycenter=c5
sample=Flute_invertedturn_major_FF_C5.opus
tune=-24
</region>

<region>
hikey=a#5
hivel=127
lokey=a5
lovel=1
lpc=TSWJQUtb5sHqnqFBPeHKPo0wR8HBpVpBwDKcwGszsr9F15hAzaiDwIKIk0D4LSHAZj7IPiG4/z+mzde+MLKcP4mkib+AE1M/9gISQLawtL+EBa6+q9SYP5B3FEAn4VnA
lpc_rms=-21.75
offset=473
pitch_keycenter=a#5
sample=Flute_invertedturn_major_FF_A#5.opus
tune=-37
</region>

<region>
hikey=a#4
hivel=127
lokey=a4
lovel=1
lpc=6KWpQSsIYcJ76VpC5MJ9wV11XcHrKZZBr7RSwXEzuUAR6MI/lnC6wE859kDw2RDBQlUqQRRvD8FTF88/naBpQBH8RMDX4mhAH4wrwDLWlMCGvA1B8KR3wBrwg78OtZU/
lpc_rms=-20.41
offset=841
pitch_keycenter=a#4
sample=Flute_invertedturn_major_FF_A#4.opus
tune=-18
</region>
</group>

<group>
amp_veltrack=0
ampeg_attack=2
ampeg_release=0.35
group_label=PP
lpc_hicc1=42
lpc_locc1=0
volume=-3

<region>
hivel=127
key=A#4
loop_end=252058
loop_mode=loop_continuous
loop_start=81936
loop_xfade=20614
lovel=0
lpc=O1EsQhP/wsLlmqtCk5wHwhCYOcEDug9CIoGnwRNCGcFeacVBygOjweiTs0AjcThApY4UQCnadsFVK5lBgQNlwbnKx0AVsb1AInZGwAgFoMCI4YpAl7CfwBRvUkB+4/c/
lpc_rms=-29.33
sample=Flute2_sustain_PP_A#4.opus
tune=-1
</region>

<region>
hivel=127
key=A#5
loop_end=245197
loop_mode=loop_continuous
loop_start=79705
loop_xfade=20053
lovel=0
lpc=KpJtQn3DQcKWJ6BBg042QIGCesH/GyRCketUwcsZ2UAYZ01BdbMbwan620Cm/dJAyrEAQcH8mUBbzR9B8IuCwBoMdUDtVnNAsjiOQHOOOUH3kQBB0d2lP2HeNUCllF3A
lpc_rms=-26.27
sample=Flute2_sustain_PP_A#5.opus
tune=-1
</region>

<region>
hivel=127
key=A4
loop_end=255045
loop_mode=loop_continuous
loop_start=82907
loop_xfade=20858
lovel=0
lpc=2ppBQjuo88KbTghDi1rMwtuwI0L80PVByIhywljvNUJjrU/B8lyQwSt2+kE6ZNbBfjqSQWYmPMEnS3ZACIBpwAz090CNcqPAIr60QJfl2L+XB7TAHsjlQCKoD8F/F8xA
lpc_rms=-30.58
sample=Flute2_sustain_PP_A4.opus
</region>

<region>
hivel=127
key=A5
loop_end=246949
loop_mode=loop_continuous
loop_start=80275
loop_xfade=20196
lovel=0
lpc=KMX1Qfn+w8GIXIFBAqKWP3g58sCcnsBBqo89waNB50CnVgxBLLA+v9KiwUDbldG/Exz9PyAiKEFZL8NAWYc1wAAm3kDc1mXAOGwwQTWwHEDrg06/XhsPQRDG2T9Z89NA
lpc_rms=-30.89
sample=Flute2_sustain_PP_A5.opus
tune=+1
</region>

<region>
hivel=127
key=B4
loop_end=248027
loop_mode=loop_continuous
loop_start=80625
loop_xfade=20284
lovel=0
lpc=80FgQhjtBcOojOlCDIUrwt7cw7+815RBAs4FweyAR8GHP4hB71OTwXHsnkHJEWTB6Id3QXvHocFcRoJBCF9XwWBUG0HeHIc/6oRJwH3tGMBG9btAR69kwJJvtD1Nir4/
lpc_rms=-27.89
sample=Flute2_sustain_PP_B4.opus
</region>

<region>
hivel=127
key=B5
loop_end=244349
loop_mode=loop_continuous
loop_start=79429
loop_xfade=19983
lovel=0
lpc=8w92Qor6VMKeYc1B3sjkwDbr9cAtDiVCs8/FwcwDtkD2o0xASAwhPt42kEFj8/HAIYtfP8EsBUAqQAxBLGC5QHnqor8Gxdq/u5arPwMUcEHBcAJAvJkUwFif3D/SXF3B
lpc_rms=-25.94
sample=Flute2_sustain_PP_B5.opus
</region>

<region>
hivel=127
key=C#4
loop_end=248672
loop_mode=loop_continuous
loop_start=80835
loop_xfade=20337
lovel=0
lpc=wbMOQit7xMLSheVCRkGnwi/MC0LqrCZBVX+SwTX4QEDsL3JAjI+UwMRsVT8V7pFACnKMwAe/BkB8pS4/Z4muwFInKEEoyxXBhQX5QOSwC8FvBPhAv9IIwdUO/EBIDjTA
lpc_rms=-33.74
sample=Flute2_sustain_PP_C#4.opus
tune=-1
</region>

<region>
hivel=127
key=C#5
loop_end=244893
loop_mode=loop_continuous
loop_start=79606
loop_xfade=20028
lovel=0
lpc=Ca0/QhEIvcKwO5hC4SY0wjHkEkFO6AJCogD8wV3+DUER2wtB6+WXwTV1f0GfdyDB+eWjQGsbmMBI7D1BHotFwRiuyj9LLAhACga4QKX3Aj/3Cou/ougBwM6srMAlzc5A
lpc_rms=-31.38
sample=Flute2_sustain_PP_C#5.opus
</region>

<region>
hivel=127
key=C#6
loop_end=241027
loop_mode=loop_continuous
loop_start=78350
loop_xfade=19712
lovel=0
lpc=GQOeQWrwVMHjJ9FA8BtBP1iQE8BxnPJAHlhmwFLwn0B7I0O/uhc7PwmFdUBc72s/3ciGQLeOP8DZo1ZA5ZvLP9K4cz967sk/hJw5QLfspz7Q5jW/bOZUwEB+PMBwJytA
lpc_rms=-34.89
sample=Flute2_sustain_PP_C#6.opus
tune=-2
</region>

<region>
hivel=127
key=C4
loop_end=247182
loop_mode=loop_continuous
loop_start=80351
loop_xfade=20215
lovel=0
lpc=rsUkQpZC78K+XxND2ebFwrtao0G+u/xBanX7wTerhUC7/HdB921cwcP13L8dsDNBMEmhwIElBMFk1IJB5W+Kwc2UV0Fpbp/A1tiOQJyxEcHwcS5Be88HwToF6j14PhNA
lpc_rms=-36.97
sample=Flute2_sustain_PP_C4.opus
</region>

<region>
hivel=127
key=C5
loop_end=253570
loop_mode=loop_continuous
loop_start=82427
loop_xfade=20737
lovel=0
lpc=sx5GQkLF9MIU5AdD82vFwtavO0LF3WVA9Du0wQuGqUAk5bhBW/AXworgFkKA9QXCNU3GQZzjZcGsyixBZqJMwXq7IEG0ivDA6oM4QdbjncCVagvAjaeqP67ptj/kgjG+
lpc_rms=-30.66
sample=Flute2_sustain_PP_C5.opus
tune=-1
</region>

<region>
hivel=127
key=C6
loop_end=250847
loop_mode=loop_continuous
loop_start=81542
loop_xfade=20515
lovel=0
lpc=msBHQtny58FEdoZBoxARQDoMH8GfrLlBLOYswW9kjL7v5xtBBv3gv3UmCUH1x6bAkp1vQBj8nEBwnz9A9OUDPx8VTEAHVlS/MFKbQDl3uUBTj20/kiuRv0gTEMGvkW3B
lpc_rms=-27.38
sample=Flute2_sustain_PP_C6.opus
</region>

<region>
hivel=127
key=D#4
loop_end=245679
loop_mode=loop_continuous
loop_start=79862
loop_xfade=20092
lovel=0
lpc=qsgVQvoi8MI5zSVDuJUBw5QrUUJv4ohByW8zwtsqyUH5VfRAucTVwVAu40FH6X/BohhQPvNmqUCuYbA/ALb7wF4WFkG+8vbAXv6iQAYV6r+hEcm/9eOlQLZXzMDMASlA
lpc_rms=-36.20
sample=Flute2_sustain_PP_D#4.opus
</region>

<region>
hivel=127
key=D#5
loop_end=247834
loop_mode=loop_continuous
loop_start=80563
loop_xfade=20268
lovel=0
lpc=BDECQqFcT8JQ2zBCbCgBwhHkg0GeD4s/vIAowf6HCkFMyvk/ibmRwLo+gkCg5iDBrIsnQS3a4MBtPXRAYGfjvnne8j7IMgVAaSyAQCyQBb+lrCs+raolP73pFsDBy+4/
lpc_rms=-34.27
sample=Flute2_sustain_PP_D#5.opus
tune=+1
</region>

<region>
hivel=127
key=D#6
loop_end=247230
loop_mode=loop_continuous
loop_start=80366
loop_xfade=20219
lovel=0
lpc=UJUJQg5VQcF8DtlAk9gSQYbeQMG6wElB7bkYQdSPaMA7egNBepwoQNBf90AW3KBAN4eqQEqFLz9zq51ABMQTQWS0jUC5u25AlRknv3mvQsGpz/U//pMfP27DGj0iEcpA
lpc_rms=-30.97
sample=Flute2_sustain_PP_D#6.opus
tune=+1
</region>

<region>
hivel=127
key=D4
loop_end=238034
loop_mode=loop_continuous
loop_start=77377
loop_xfade=19467
lovel=0
lpc=gJa5QbwChsKM96hCSTR0wrI3mEEdV2BBCw2xwaBBSEEbcFi/mCS8wMsgzEBbMEXAspWVvenF0D1MJn1Am2kHwRcTJUFF2f3A6hePQCgDqL9bd7q/OHkPQLuz8b+pnFk/
lpc_rms=-43.31
sample=Flute2_sustain_PP_D4.opus
tune=-2
</region>

<region>
hivel=127
key=D5
loop_end=237334
loop_mode=loop_continuous
loop_start=77149
loop_xfade=19410
lovel=0
lpc=2sAkQpBd2MLS6/lCGNG6wkIPIULpisZBnV9swndISEKqSpnB81kLwSLprkEWpa3BV/ESQVV3qD8lsQs/aPaBv3ngEEB/6QPBry5JQaYq4cCoKD3An34SQci6KMGm3sdA
lpc_rms=-32.87
sample=Flute2_sustain_PP_D5.opus
</region>

<region>
hivel=127
key=D6
loop_end=249446
loop_mode=loop_continuous
loop_start=81086
loop_xfade=20400
lovel=0
lpc=U5FTQoyLAcK5HGdB/5BcwM7bk8BOeclBVRQAwWViMkFoEehASDQpQKXkPUHeTVRAYJ+OQKLy9UAiVOZAD2+GQFUqOkEX/hnAERyBQQ8JDMCW2pHBgg4dvPvl8EAZAUJB
lpc_rms=-25.25
sample=Flute2_sustain_PP_D6.opus
tune=+1
</region>

<region>
hivel=127
key=E4
loop_end=238188
loop_mode=loop_continuous
loop_start=77427
loop_xfade=19479
lovel=0
lpc=5BUpQq0w8cKMEQhDO0eXwrzjHEHYbeRB7BbhwXvKNkDv6i5BwBpUwdQIPkF9dirAxh5YvwhZBsHE9ItBCDecwVssV0FPDSa/Zi6NwECv6z+wQrS/IOoFwLBrhUCL5Xq/
lpc_rms=-34.41
sample=Flute2_sustain_PP_E4.opus
</region>

<region>
hivel=127
key=E5
loop_end=236074
loop_mode=loop_continuous
loop_start=76739
loop_xfade=19307
lovel=0
lpc=8X2ZQYt2BsJBu6FB/rTYwFHDMcBbJ5pBwxOKwdM6nEB7nZG/BlfpPj2w8z800RXAMa9qQIDjk8DbRttAGhmjwKo9WD/xvRG/FDYtQCKs/T8wuVbAdrX6P6wFocDVUKxA
lpc_rms=-31.88
sample=Flute2_sustain_PP_E5.opus
</region>

<region>
hivel=127
key=E6
loop_end=241595
loop_mode=loop_continuous
loop_start=78534
loop_xfade=19758
lovel=0
lpc=8kYJQVpPhcBZPvQ/tWGZPzvZx7+hsg1AOj+zP37rcT/SH7c/6YoTPjH9H0DnbsU+s+qPPwYAoj+6G34/zd+kP18czj8pmgm/EoxLwHhYCz+akY4/21SGPgqN9z8/WEa/
lpc_rms=-41.99
sample=Flute2_sustain_PP_E6.opus
tune=-2
</region>

<region>
hivel=127
key=F#4
loop_end=246785
loop_mode=loop_continuous
loop_start=80221
loop_xfade=20183
lovel=0
lpc=d/kWQqBaxcIDWuBCt6GUwsEwOUErLDFC48xTwsKoz0GfggpALmKbwR9IpUFcBEHBOUeWQN7+0T51ak7A4sWJv2HC/ECKOUPBgUVmQVmLBsE19kPAfu0QQbPpBsEHTY5A
lpc_rms=-33.48
sample=Flute2_sustain_PP_F#4.opus
tune=-1
</region>

<region>
hivel=127
key=F#5
loop_end=243882
loop_mode=loop_continuous
loop_start=79278
loop_xfade=19945
lovel=0
lpc=otPIQbnvE8LEr79B0xQTwQHD1r4kgUtBVcpfwaJpCkHvd+g/T/rBPm1fWj9isITAI8vvPjChQECRYDS9whuaQCvTgD5ZREjAcYKhQCkBpsBpJBlAQ6elP/SKO7/zuZ9A
lpc_rms=-32.35
sample=Flute2_sustain_PP_F#5.opus
</region>

<region>
hivel=127
key=F#6
loop_end=246232
loop_mode=loop_continuous
loop_start=80042
loop_xfade=20137
lovel=0
lpc=OAJ+Qpe508FN0CdBMfKvwNZGc8FtGhNCFOBpwGmwvEBRiodBD4wQv1AoW0F4n+hAlL11QDHU2UDDGltBe2K2wBeWhsE7uLXA3GpKQfKBZEG/4ABBIgCGwFjp0sCeWaJA
lpc_rms=-23.16
sample=Flute2_sustain_PP_F#6.opus
</region>

<region>
hivel=127
key=F4
loop_end=240891
loop_mode=loop_continuous
loop_start=78306
loop_xfade=19700
lovel=0
lpc=dc4gQgQY5sL71gpDsVWywqIQGEGl7jVCHGscwnhFokCjDnJByXCjwYE7SUEourC/l7ogwBlx0b74VRBBeRmWwTBfnUGy4UjBHVocQY8C/cCUZU4/Qf7mQHsnLsF6vrtA
lpc_rms=-34.78
sample=Flute2_sustain_PP_F4.opus
</region>

<region>
hivel=127
key=F5
loop_end=241670
loop_mode=loop_continuous
loop_start=78559
loop_xfade=19764
lovel=0
lpc=NG94Qb+crsFakzxBLXFfwJtIacDC2ilBgvPrwC7SHkC8Z4JA7TZ0wIUvIkDdvB/AFDwmP1A+Zz+oRVK/U89LQHJu0b5Znfw+cMa2PyN1x79GmKC/o+IAQLeZO8DbwqBA
lpc_rms=-34.86
sample=Flute2_sustain_PP_F5.opus
</region>

<region>
hivel=127
key=F6
loop_end=248373
loop_mode=loop_continuous
loop_start=80738
loop_xfade=20312
lovel=0
lpc=74UOQt0d9sCBA5Y/wAajQNlNWMHNY1xBL/79QPpK3b6M6gtBLWnSPiaG8UBKeFk/bLMCQZ067j6v43VA/pIPQWsLeMAgmYDBSsQTwNogkECuNZZA/8j4QI0nwD6GPLTA
lpc_rms=-30.64
sample=Flute2_sustain_PP_F6.opus
</region>

<region>
hivel=127
key=G#4
loop_end=246198
loop_mode=loop_continuous
loop_start=80031
loop_xfade=20134
lovel=0
lpc=HHyLQTAjMsI5nkxCR5QZwmI8cEF/r05BILu5wQ8LaEFiRynA98cNwfFeU0EYSgzBI3G9QKOllcCSxAVAxywfwOWdG0Bk91i/2BFCQJWHXsDlckA/t60kPgWJiL+wLNM/
lpc_rms=-39.88
sample=Flute2_sustain_PP_G#4.opus
tune=+1
</region>

<region>
hivel=127
key=G#5
loop_end=245041
loop_mode=loop_continuous
loop_start=79654
loop_xfade=20040
lovel=0
lpc=uRk+QYzNHMHGqvM/njCdQD4vRMBgh4dA2kJ5P/lsGcBKKzFAPuc6QMICoz4pUY+/vnvpP2Uvp76vNYJA+2DHP4DWFMAcvpw/iVkoQJ1FvD5yeAtAYmx5v4MTdD74CY5A
lpc_rms=-37.79
sample=Flute2_sustain_PP_G#5.opus
</region>

<region>
hivel=127
key=G#6
loop_end=253367
loop_mode=loop_continuous
loop_start=82361
loop_xfade=20721
lovel=0
lpc=ePFLQY+BNsBwXF9AAiHzPw16WsDOhL1A1SMev5bTkT9ieWFA3xEnvuPkLEAZNvg/tVwhQCcp0DyJoEfAA8JIwGyAFT/TyF0/evepP36QeT/pGp88aLMiPx2EEj25QAk/
lpc_rms=-37.79
sample=Flute2_sustain_PP_G#6.opus
tune=-1
</region>

<region>
hivel=127
key=G4
loop_end=245382
loop_mode=loop_continuous
loop_start=79765
loop_xfade=20068
lovel=0
lpc=2ZwHQktWvMKFi9JCEoBawov/uMBj2ypCs3Mawq4/+0CHsTFB2v4twS6RgUCPN3U96PSPQP/BD8FhDZ1A6nQpvwzLOkCIHyzBkYiLQQ5xNsH2YHTABph1QZMJicEyOgVB
lpc_rms=-34.32
sample=Flute2_sustain_PP_G4.opus
tune=+1
</region>

<region>
hivel=127
key=G5
loop_end=240841
loop_mode=loop_continuous
loop_start=78289
loop_xfade=19696
lovel=0
lpc=EH2gQTgjqcFaOI1AwXH4QLKuHcHgImNBq7kuwCxS0cAAehFBfuMAwFmPhz0sv0tAy/zkPi6LV8BLkppAYIiXQPsuoMAQ6j9A/znCPzZJib+We45AeyAEwGF627+OxupA
lpc_rms=-33.84
sample=Flute2_sustain_PP_G5.opus
tune=+1
</region>

<region>
hivel=127
key=G6
loop_end=239680
loop_mode=loop_continuous
loop_start=77912
loop_xfade=19601
lovel=0
lpc=VGCZQVaYBcGhRWNAngpIQL1138C0OgBB80gwP3Koar+eWc9ANmU3PoI4RUCC9aw/to58QOR4kT+CcwxAfKL2wL14j7+OiYpApivevYAGjEB06aY9GD46v20IJkCuzXC+
lpc_rms=-35.58
sample=Flute2_sustain_PP_G6.opus
tune=-1
</region>
</group>

<group>
amp_veltrack=0
ampeg_attack=2
ampeg_release=0.35
group_label=MF
lpc_hicc1=84
lpc_locc1=43
volume=-3

<region>
hivel=127
key=A#4
loop_end=246372
loop_mode=loop_continuous
loop_start=80087
loop_xfade=20149
lovel=0
lpc=3XiTQoobdcPHx6VDuChsw2miyELpf+LB2nSHQd4bKsK52UlCfSS+webUbEE80QzC27o7QsPmDcLiY45BFJkLwMX8Y8HQMrFBvdh6wSD9JEG2FxLB+AGVQANmOMBDxBtA
lpc_rms=-24.03
sample=Flute2_sustain_MF_A#4.opus
</region>

<region>
hivel=127
key=A#5
loop_end=252615
loop_mode=loop_continuous
loop_start=82117
loop_xfade=20659
lovel=0
lpc=wdv7QUUYNMIEQxNC+ZydwH5igsFLyuNBl0QgwUwescAYlHZBPhYLwY2VLEGqxpLAg4AAQSul6MByiDtBfTKEwL9hwUAMYgRAxQ/RwI3OMEEZUrdAutVqwXKpr0G2iibB
lpc_rms=-24.20
sample=Flute2_sustain_MF_A#5.opus
tune=+2
</region>

<region>
hivel=127
key=A4
loop_end=254674
loop_mode=loop_continuous
loop_start=82786
loop_xfade=20828
lovel=0
lpc=ITIpQrD528KO6OFCScuGwu+exEGrcp1BN6MhwmdktUGQbbu/UhbgwIkhFEFQ2iHBhPkoQVKn8sD0sAJBJpXvwPHLNz+iRL4/69EdPmaDez+ZMRpA+0rgwG1V9j9O/wNA
lpc_rms=-24.06
sample=Flute2_sustain_MF_A4.opus
</region>

<region>
hivel=127
key=A5
loop_end=250488
loop_mode=loop_continuous
loop_start=81425
loop_xfade=20485
lovel=0
lpc=oi9sQtFbqsJ0VJBCDqGSweuGkT+v7bhAirFtQUMiIsE7G4JBDAoDwXDsu0ELnlbB7Q2KQaU8ssA2PNtAafzrQNRvsUC6ygI/dJv9QN6gL7/7mWNBY+WwwApQ0kA6siJB
lpc_rms=-20.42
sample=Flute2_sustain_MF_A5.opus
</region>

<region>
hivel=127
key=B4
loop_end=245844
loop_mode=loop_continuous
loop_start=79915
loop_xfade=20106
lovel=0
lpc=jzRJQs5vDcP6DR1D0v2mwvzjAUERUJ5Bk/JbQGgRD8JEng5CKRCLwXPch0FHwObBvFPKQULyCMFgJ6DAcVMmQcs0ucDOsLq/EjKwQHvZD8GqXBdBUtxPv+5/8sA2HqVA
lpc_rms=-22.90
sample=Flute2_sustain_MF_B4.opus
tune=+1
</region>

<region>
hivel=127
key=B5
loop_end=254415
loop_mode=loop_continuous
loop_start=82702
loop_xfade=20806
lovel=0
lpc=nQyhQquPucJpToxCprQJwn3AHUFSNZBBY8owwZP0nUD5xPlA0loGwSK5rUFn8IvBpypdQWsgwsBi6G1BZg2zwLoE5kDy2wbAl1OJQCfQ3EBMUe0+hU8YwVMd50GbCRTC
lpc_rms=-16.41
sample=Flute2_sustain_MF_B5.opus
tune=-1
</region>

<region>
hivel=127
key=C#4
loop_end=249331
loop_mode=loop_continuous
loop_start=81049
loop_xfade=20391
lovel=0
lpc=kcijQT8COsKIkSFCSFvMwTx7c0EEhe0/ZdwOwUigLUBBoxpAm9kqwJCfDECQ6pi/li3jv6rtNT+sMNE/bTIjv5Bl0j+ArFPA15COQG3Pn8DHgZpAadK8wGx6rkCJgf6/
lpc_rms=-32.68
sample=Flute2_sustain_MF_C#4.opus
</region>

<region>
hivel=127
key=C#5
loop_end=249291
loop_mode=loop_continuous
loop_start=81036
loop_xfade=20387
lovel=0
lpc=a82fQeJUEcLXEsZBYh2FwHTKHsGWhI5B9IMnwayKrMAXyyRBo9LKwCe0jEDQhx/ADA7MPjrFOMA4Ja9AVUdIwCyuPj57OYG+QyAOvoGNTUBx6os+GI2OvyZ4BD6lngo/
lpc_rms=-30.75
sample=Flute2_sustain_MF_C#5.opus
</region>

<region>
hivel=127
key=C#6
loop_end=248005
loop_mode=loop_continuous
loop_start=80618
loop_xfade=20282
lovel=0
lpc=jfbOQWWbn8FrLQtBKFyTP/upJ8AXh/VAHtinPuk/aj5ax6ZA87wPwJF6+UDSxzLA5s3CQPvlkL//J2JAXGCuP+2FLUAYbAJAXPkEQCFjjT8x4K5AXOtHwQN69r9AreVA
lpc_rms=-27.88
sample=Flute2_sustain_MF_C#6.opus
</region>

<region>
hivel=127
key=C4
loop_end=252105
loop_mode=loop_continuous
loop_start=81951
loop_xfade=20618
lovel=0
lpc=wYaMQT0SH8L/8w1CRJO+wYqedEGHg5m+aWrOwH57C0BpOfo/YiG1wGHKxEDZHpjAeA5/QHQiBMBSkA0+BQvaP0wqAMAEgA2/AK0LQE797L8yggZApP3wv5NUw76YypU/
lpc_rms=-33.30
sample=Flute2_sustain_MF_C4.opus
tune=-1
</region>

<region>
hivel=127
key=C5
loop_end=250894
loop_mode=loop_continuous
loop_start=81557
loop_xfade=20519
lovel=0
lpc=J/oqQuzf6sJs1gBDy+iEwuQHuz+CXP1BHEm4wbHzg8Fr/yxCab8HwoWNiEEuj4HBHo61QQCa2cEcKcFBVx4dwa2B1sDwDDRBWkT6Piv9LsHfR2VBjO18wU1MK0HSigHA
lpc_rms=-25.26
sample=Flute2_sustain_MF_C5.opus
tune=+1
</region>

<region>
hivel=127
key=C6
loop_end=248857
loop_mode=loop_continuous
loop_start=80895
loop_xfade=20352
lovel=0
lpc=VURKQmeOVsJ5ZeFBeIPNQExrhMHuilBBgMEIQRPXMsEsDSZBMQY9wBS8LEH44L7A+esfQWtGZr47/6bArfcSQTbinD8wot+/XkHeQB0E6b/3P8RA3SM4P7fydsEWYDJA
lpc_rms=-20.38
sample=Flute2_sustain_MF_C6.opus
</region>

<region>
hivel=127
key=D#4
loop_end=244086
loop_mode=loop_continuous
loop_start=79344
loop_xfade=19962
lovel=0
lpc=nYPYQSUZgsK1y2ZC/cXuwR/2dkHV78k/2XcuwdFpmkDF9vk/Fm+swGzQoUDr8t7A+OMUQXIM0cCkQHpAaXnVvzN56L8KEec/uIT9PwfvisD9uKBAYK2cwKIhhj/xB8I/
lpc_rms=-31.66
sample=Flute2_sustain_MF_D#4.opus
tune=+1
</region>

<region>
hivel=127
key=D#5
loop_end=252486
loop_mode=loop_continuous
loop_start=82075
loop_xfade=20649
lovel=0
lpc=qXmmQef/LcKUzRJC0fOPwZwCjz/NdGJB5cCBwbMlFkFXWea+S2GpvxjqLj+OkiHAzXi6P9t2u78F/0NAxSYBwCBff0DU9ZvAD8mpQCuLpr8jB13AmsibQMAn9cD50cVA
lpc_rms=-31.18
sample=Flute2_sustain_MF_D#5.opus
tune=+1
</region>

<region>
hivel=127
key=D#6
loop_end=245867
loop_mode=loop_continuous
loop_start=79923
loop_xfade=20107
lovel=0
lpc=QTokQkiYD8JwyaJB2gPnP9IleMGIDNFBFDv2wLJeg7/B3VlBOq/twG9ba0FSIYXAixzXQE7Sy79RugZBPAt9QOXY8T6PwddAzkSNwPePfcGnbTpB6Xzlv5OMNkBa4xVA
lpc_rms=-26.12
sample=Flute2_sustain_MF_D#6.opus
</region>

<region>
hivel=127
key=D4
loop_end=255257
loop_mode=loop_continuous
loop_start=82975
loop_xfade=20875
lovel=0
lpc=To53QTSUDsLdxftBHZ2bwVEITUHXlNC+hum2wFHihT83pSVAYOF5wPrljkBoRpXA76OHQEZTFsBS8wJA0IyWv0bKmr/qSqi9zNElQGIQ3L8KFPg/hboYwH315T1NznY/
lpc_rms=-37.91
sample=Flute2_sustain_MF_D4.opus
tune=+1
</region>

<region>
hivel=127
key=D5
loop_end=256510
loop_mode=loop_continuous
loop_start=83383
loop_xfade=20978
lovel=0
lpc=0OmaQePLKcI4NxNCsmx6wXwULcDNM4RB7u5zwcgXWkAHYJxAYUR1wMW1iT+kBvm/uJzLP6WkKcC3yMdAkKSewJkkDkCFfPC/S7aiPxx0P0BVjiHA32S2P9oWh8Cfi2FA
lpc_rms=-29.91
sample=Flute2_sustain_MF_D5.opus
tune=+1
</region>

<region>
hivel=127
key=D6
loop_end=246428
loop_mode=loop_continuous
loop_start=80105
loop_xfade=20153
lovel=0
lpc=HikDQtxM3sG2Bm5B2eo4wCMzPsBMm1JB/2dswAUKNEB7htBAHXFGv9z9s0BK1VY/766VQI4JwT6H4pJAM+thQMo4GT+Nc6JAgIMrQCoUwT/d0W7B8Oh0QOARtkDrqBFA
lpc_rms=-25.45
sample=Flute2_sustain_MF_D6.opus
tune=+1
</region>

<region>
hivel=127
key=E4
loop_end=244344
loop_mode=loop_continuous
loop_start=79428
loop_xfade=19983
lovel=0
lpc=lNb5QUAUmMJ64IJCSmrqwRDIU0FSZEk/RWQNwV12HkCiwt5AAppQwS9ULkHy3sXAVZjKQJNhysCtVFJAZwm1Ph58Mb5PQQvANOqrP6lqTsAHLJdAo2+xv+PZF0Dd+xbA
lpc_rms=-29.49
sample=Flute2_sustain_MF_E4.opus
</region>

<region>
hivel=127
key=E5
loop_end=254835
loop_mode=loop_continuous
loop_start=82838
loop_xfade=20841
lovel=0
lpc=YxrUQcceX8IsDUxCo33AwZ2uxL8z8VlBIPfUwDwX2L9zkcJAtiuYwKMEcEDKSb7ApTmWQKERbcAx3dhAlAwGwGRJ1r8I8A5Ae2OsvnXR5r/aeUxAys76P0cI7sCk9sFA
lpc_rms=-28.81
sample=Flute2_sustain_MF_E5.opus
tune=+1
</region>

<region>
hivel=127
key=E6
loop_end=249967
loop_mode=loop_continuous
loop_start=81256
loop_xfade=20443
lovel=0
lpc=I+sbQmyUDMJCBYFBMFMkwO++9cBZcqBBJjVKwPfxaT/RAQ9BWqvlwMqQMEGwVEHABbpqQOTyP0AZZaA/sCCxPxZLtUA/Of2/HCHBwdAHcEG9GJhAMZWPwG3OMEGJJzzB
lpc_rms=-23.80
sample=Flute2_sustain_MF_E6.opus
</region>

<region>
hivel=127
key=F#4
loop_end=246896
loop_mode=loop_continuous
loop_start=80257
loop_xfade=20192
lovel=0
lpc=/j8pQgzD2sK/4d1CipGGwlP5BEKsZaRAV1YEwvSsrUGEr51AnctgwZuaI0EwHwXB0WByQGFLIEA5ER3A3bXzv3Ij3D8UWvu/RLffQFiDwcDhV4RAAqyCwNHF2j9IQHk+
lpc_rms=-26.54
sample=Flute2_sustain_MF_F#4.opus
</region>

<region>
hivel=127
key=F#5
loop_end=256208
loop_mode=loop_continuous
loop_start=83284
loop_xfade=20953
lovel=0
lpc=txsAQnDjfcJ761dCcOGKwWwZKMEF2udBRnO/wXvcHEDwnSZBc2OvwKT0GUF2UzPBXBaKQJqKK7/baANBB0aQwM6+TL9J6iLAjlolQYYJA8GpImhABrf2QEv3YMEnRCtB
lpc_rms=-25.29
sample=Flute2_sustain_MF_F#5.opus
</region>

<region>
hivel=127
key=F#6
loop_end=247047
loop_mode=loop_continuous
loop_start=80307
loop_xfade=20204
lovel=0
lpc=S5ugQkQokcIoMM5Bkjs4QQqaDMKwwGJCMy5LwKXzacFACQ1C7WqMwf65s0E4jPRAROiDP4oRBEHcJYFBgX+/wGZKFsJxF+FB9QFhQdQQ3MA3JcxB07ClwX65mL+/K9NA
lpc_rms=-14.80
sample=Flute2_sustain_MF_F#6.opus
</region>

<region>
hivel=127
key=F4
loop_end=246642
loop_mode=loop_continuous
loop_start=80175
loop_xfade=20171
lovel=0
lpc=M3UVQvbpucKI7KRCDlkDwr5ix0CkHhRBjX+NwSTZQEFJmt2/mBPhwG6s/0BNopvAz6LxQLufIsF1a8tAetdPwGdLMD+F/xdA7VkAv4dDsT+AqNm/K6IqwHJFiz8nVbU/
lpc_rms=-27.38
sample=Flute2_sustain_MF_F4.opus
</region>

<region>
hivel=127
key=F5
loop_end=255777
loop_mode=loop_continuous
loop_start=83145
loop_xfade=20918
lovel=0
lpc=HocuQhxSosJbToJCgvXQweFhHcE6bRJCPk7LwTHubMCJAa9B2cKCwQtPP0HqhtHAj4aAQGQsTsGiF51BxogawDIEzsDer+Y/HP7QQBTjocAFMUZAbGmNvzGJlMBa9BxB
lpc_rms=-24.41
sample=Flute2_sustain_MF_F5.opus
tune=+1
</region>

<region>
hivel=127
key=F6
loop_end=250595
loop_mode=loop_continuous
loop_start=81460
loop_xfade=20494
lovel=0
lpc=gcwyQs8hFcJhyHFBPXuXQLDHksFNR99BOxQEwZ1nrL8cHWRBlV4vwSN/YkED9anA/lbLQDpzTEDD/s2/JDYWQS1wc8Dc0vLBUly2QSe1QcDLhss+5ZAmQYhkRsHxS4NA
lpc_rms=-21.65
sample=Flute2_sustain_MF_F6.opus
</region>

<region>
hivel=127
key=G#4
loop_end=240825
loop_mode=loop_continuous
loop_start=78284
loop_xfade=19695
lovel=0
lpc=B8HQQfSJgMJYH3ZCD9MTwtj9kEGiEO5A8K6kwX0K60BoJqdAFzm8wLgY1kDOGcXA5EkNP5z2RDutKZZAo2jHwGNshUCNXInADz29QC5H07/w978/t+45wBANIsDs6kVA
lpc_rms=-29.36
sample=Flute2_sustain_MF_G#4.opus
tune=+1
</region>

<region>
hivel=127
key=G#5
loop_end=252684
loop_mode=loop_continuous
loop_start=82139
loop_xfade=20665
lovel=0
lpc=ldUiQkcRecLF9UVCKc4twS+CEsG1aptBeVwewBIVAMH7O3BBdhyswGdwHkGzdxHBou4eQSgf8j6nfzhA/iNyQLRCJr8lX6C+ReQOQaql8b/bOu4/TUmcQK/mVsB25SVB
lpc_rms=-23.57
sample=Flute2_sustain_MF_G#5.opus
</region>

<region>
hivel=127
key=G#6
loop_end=247030
loop_mode=loop_continuous
loop_start=80301
loop_xfade=20203
lovel=0
lpc=hSHDQuoCocJQJxpCN3W6QFNS1sGnWo1C71erwagEdEFEbthBYoYawVW49kG/8RjBnyrBQZxfa8CU5A/CNZArQZI5mUGKOk/ACPs2QaiI7sBHthDB8tlOQPxaPsEkVKhA
lpc_rms=-14.51
sample=Flute2_sustain_MF_G#6.opus
tune=+1
</region>

<region>
hivel=127
key=G4
loop_end=252009
loop_mode=loop_continuous
loop_start=81920
loop_xfade=20610
lovel=0
lpc=ejj3QTmDmcJrNYpCk3HJweiL5cCutd9BpIm+wQMFscB8zqFBHA83wUoalECfw5LA/ly/P2w1ZcAbOBZBWAiRwFk5P8AXiwZA311hPz1lir/TNXxAI9yqwJcx8z+6YN0+
lpc_rms=-27.00
sample=Flute2_sustain_MF_G4.opus
</region>

<region>
hivel=127
key=G5
loop_end=255245
loop_mode=loop_continuous
loop_start=82972
loop_xfade=20874
lovel=0
lpc=8GEDQtUdg8JTG4dCRbobwnTlQEGhyN1AIlebwKWvAUBhbMi/pGLEQGb857+nCvO/SyEGQdZMZcCMmEG/1IWRQFfjWr/iCUk+KWHGQE6508AeLfZAb50hv7Ujz8Ao6CNB
lpc_rms=-24.75
sample=Flute2_sustain_MF_G5.opus
tune=+2
</region>

<region>
hivel=127
key=G6
loop_end=249030
loop_mode=loop_continuous
loop_start=80951
loop_xfade=20366
lovel=0
lpc=DqV1Ql1aQ8L125xBR0anQNeyrcGIixdCzv0Iv1sJQMFl069BIN+twKm2mUFvwD8+KogZQTU3IMAtto1AOMClwb6r00CK0VlBbwF8wF42EkEb4S2/JLE5wHudgUBHECTA
lpc_rms=-17.06
sample=Flute2_sustain_MF_G6.opus
</region>
</group>

<group>
amp_veltrack=0
ampeg_attack=2
ampeg_release=0.35
group_label=FF
lpc_hicc1=127
lpc_locc1=85
volume=-3

<region>
hivel=127
key=A#4
loop_end=250442
loop_mode=loop_continuous
loop_start=81410
loop_xfade=20482
lovel=0
lpc=/SmrQXKZXMJCdmNChDgCwoEfREF6fHRAcSZXwZBhEkEdGLg/j1LzwCqsBEFE7/3AflAHQZUv3MBzYAFAUwf2P0cGBcCGGXk/zGR1P1wpuL+BuyK/IJgUQCtGFcC0lq4/
lpc_rms=-20.65
sample=Flute2_sustain_FF_A#4.opus
tune=+1
</region>

<region>
hivel=127
key=A#5
loop_end=257832
loop_mode=loop_continuous
loop_start=83813
loop_xfade=21086
lovel=0
lpc=vDGSQVNw1cGhSrlBmknJwIVhjMCG+0dBCyEGwaYwoED6FoRAJsjRwCFAAUGdA8q/d+MEQBFiLL2XHohA6lEewKD+/T9sElBARYT3v6lgYkAYhu4/nDmCwBnsFEFV7JHA
lpc_rms=-22.48
sample=Flute2_sustain_FF_A#5.opus
tune=+4
</region>

<region>
hivel=127
key=A4
loop_end=254996
loop_mode=loop_continuous
loop_start=82891
loop_xfade=20854
lovel=0
lpc=nzOqQWk6Y8KZiWpCTa3Yweofq8Cn+L1BrleDwSFgzsACOZFBfJRlwWbptUCZQOY/TpsKwMajbcByCd1AmgxuwD0yuL8GBQBAcKNHQGUQpcDaD70//q9BQIkcn8AN8iZA
lpc_rms=-19.97
sample=Flute2_sustain_FF_A4.opus
tune=+1
</region>

<region>
hivel=127
key=A5
loop_end=250034
loop_mode=loop_continuous
loop_start=81278
loop_xfade=20448
lovel=0
lpc=OmbbQdK0IcLTywZCyLLBwHH/4cB1IylBqBuvQNv29cBOmwtBEARdwIqxGkEiCQnBJ2kQQdwThkD5BRPAFMOeP6TSnUDTU4w/ly0nvzLqRkAN/tdAcKRkwEVyGkAgPJdA
lpc_rms=-18.89
sample=Flute2_sustain_FF_A5.opus
tune=+1
</region>

<region>
hivel=127
key=B4
loop_end=254662
loop_mode=loop_continuous
loop_start=82782
loop_xfade=20827
lovel=0
lpc=u90BQsMXr8KzfrFC5vEtwkjOnb8F4i5CKhNRwoYli0GFI4tBvQH8wRdi4EFrpW/B2FuFQFNrSz/fIjNAwHMYwRgzyUDDcL6/SPQBQDQ0GEASI43AON00QHdHmsBrQVRA
lpc_rms=-16.43
sample=Flute2_sustain_FF_B4.opus
tune=+2
</region>

<region>
hivel=127
key=B5
loop_end=255129
loop_mode=loop_continuous
loop_start=82934
loop_xfade=20865
lovel=0
lpc=6u4vQt5oUMJsPAJCS3QFwDPqXMGUyaJBrKRSwFhdQsF9JJJB6CcfwUEFG0G53zXA6gCLv8U8oUAwcSc/6ctIP5G0jUDa+wzBCsBNQSztJb+L0rLA3mY1QUUsi8BMvCzB
lpc_rms=-14.47
sample=Flute2_sustain_FF_B5.opus
tune=-2
</region>

<region>
hivel=127
key=C#4
loop_end=252944
loop_mode=loop_continuous
loop_start=82224
loop_xfade=20686
lovel=0
lpc=Z7W2QeRvSsJmDRtC4Q9CwXdRgcDZCWlBxOYFwcmMNb/eM4k/AU0UwK6pb72e/EJA9q+JP+36KcB//rY/Yi8mwK9jMUC9ySy/NPKbP+DYpr9tr9a+faWEP6V4/r96fQBA
lpc_rms=-27.47
sample=Flute2_sustain_FF_C#4.opus
tune=+1
</region>

<region>
hivel=127
key=C#5
loop_end=253076
loop_mode=loop_continuous
loop_start=82267
loop_xfade=20697
lovel=0
lpc=n1lSQdlu28GDuJJBqlRwv2/M6MBRZQlBRdHmv3Xk2MC+4OhA2gFFwPowI0BLrDvAYY0AQAQYf787iwG/kfEiQC7HQMChdB6/0A+bQHWoUsBM/J0/17rIvuLv6r/1dvQ/
lpc_rms=-25.02
sample=Flute2_sustain_FF_C#5.opus
tune=+2
</region>

<region>
hivel=127
key=C#6
loop_end=252444
loop_mode=loop_continuous
loop_start=82061
loop_xfade=20645
lovel=0
lpc=GDCBQXvKR8EhEJZAuYMdQDhUO8DhzMlAHaI9PEIeqD31+pFAjvGPv8i9k0CTK9m/z2aaQCFk1b5mevc/8fk7QDSPgD5cnvs/z8MkQMT1Lj/qTURASgT0wJiLNb5DOapA
lpc_rms=-26.16
sample=Flute2_sustain_FF_C#6.opus
tune=-2
</region>

<region>
hivel=127
key=C4
loop_end=255019
loop_mode=loop_continuous
loop_start=82898
loop_xfade=20856
lovel=0
lpc=WRFmQcmtAcKdu/BBvgSzwd8VdEHqLOi/vFaHwJuh7D04b0RAe4+LwL7toUDF0Y/AZ1X+Pw0TwL4pQdM/QJiSvyxMhr0So+u/1fSJQF08dsB9Jz9Anv48wK+y3T+HnpG+
lpc_rms=-33.90
sample=Flute2_sustain_FF_C4.opus
</region>

<region>
hivel=127
key=C5
loop_end=251409
loop_mode=loop_continuous
loop_start=81725
loop_xfade=20561
lovel=0
lpc=tceOQZeoNcLNIjxCnZvDwfj3AcA427lBUSzJwYXGykAB4jpBRLV3wbPmQEHmfMjAeDJRPyw8MD+dgihAAGaTwH3s0z9V430/j58yvU/ShD45NfG+ib/3v3Zusj/n9S8/
lpc_rms=-23.95
sample=Flute2_sustain_FF_C5.opus
tune=-1
</region>

<region>
hivel=127
key=C6
loop_end=256526
loop_mode=loop_continuous
loop_start=83388
loop_xfade=20979
lovel=0
lpc=hMi3QbDR1MHdGpRBhsFMwMEGqsAQyj1BuCGYwJumnb1BaslAK6aJwAifrEB+HWa/QuP5P1KSUT/2NQ0/MCZQQFGStr8HBCRAMGlHQAAoZMA26aNAjq04QBB1ScHq0JtA
lpc_rms=-21.23
sample=Flute2_sustain_FF_C6.opus
tune=+1
</region>

<region>
hivel=127
key=D#4
loop_end=254274
loop_mode=loop_continuous
loop_start=82656
loop_xfade=20795
lovel=0
lpc=9X12QQNJC8KobuNBDx02wQR9Db/BDiRBgYcEwScCBsCdNg5BzxEWwZdxvUA9Riy/UPxDwOm4+D+o4Ko/sWImwJUMNUAePynAmOEeQMegQb9M9mm/N41SvSjuCj8iwRc+
lpc_rms=-28.65
sample=Flute2_sustain_FF_D#4.opus
tune=+1
</region>

<region>
hivel=127
key=D#5
loop_end=260085
loop_mode=loop_continuous
loop_start=84545
loop_xfade=21270
lovel=0
lpc=5f8fQfmalcHmfDdBWkeQPRPfycCg2QlBGJI2wNAWi8An47pAatAFwE+A1D4+6Oi/PP1NQLfvMMDSVEg/hNr0P496dsAUAVNAcX+NP8As6r884Zc/LJT9v3jiH7/C/QBA
lpc_rms=-29.85
sample=Flute2_sustain_FF_D#5.opus
tune=+2
</region>

<region>
hivel=127
key=D#6
loop_end=254027
loop_mode=loop_continuous
loop_start=82576
loop_xfade=20775
lovel=0
lpc=k/gOQubi28GEqi5BxfztQK5cAcHBAi1BJ/VyQAAOF75L7C1B9jcTwMqlKUGDTym9BXveQFfzN0B2C51Ay3SYQIHfmECwIwpAx8MOQU7WxsFSzD9BFz4aQSNP4cCvIfdA
lpc_rms=-18.77
sample=Flute2_sustain_FF_D#6.opus
tune=+3
</region>

<region>
hivel=127
key=D4
loop_end=251746
loop_mode=loop_continuous
loop_start=81834
loop_xfade=20588
lovel=0
lpc=+CFvQc8r/8FZN7BBSVSOwPgQisBe9AJBt5oGwOK5VsAbEQ9AXrkYwAYMnD/53Co/UQXlPsEeUr+3JFQ/dq3Iv6oa+T9v+BK/Pn/YvjnebD8dp7S/CQA1vzJ0A0A55i6/
lpc_rms=-31.09
sample=Flute2_sustain_FF_D4.opus
tune=+2
</region>

<region>
hivel=127
key=D5
loop_end=252868
loop_mode=loop_continuous
loop_start=82199
loop_xfade=20680
lovel=0
lpc=ZqCTQYDyL8KU0xhCPZMiwdNqUMGlnMRBjbxowYvvtsDJhFZBpWUJwfj9j0DGKILAlxeKQBp1mcDPy11Aj6NYQOvk5MD4HKo//eu6QMc50sBoDK5ADRsWvoQc2sDWm59A
lpc_rms=-21.61
sample=Flute2_sustain_FF_D5.opus
tune=+1
</region>

<region>
hivel=127
key=D6
loop_end=261012
loop_mode=loop_continuous
loop_start=84846
loop_xfade=21346
lovel=0
lpc=yxhEQayDFMHP6JRAdhYdP0Kt7L9hfbdAg3q1vwPSkT+WnWVAgqpWvyEkIkAsAVY/AgfDPwpERz9W9vc/ohDBP0C71D5qNxxAhyKnP8Q59D5fqrnAh58MQAj39z9U/wc/
lpc_rms=-27.51
sample=Flute2_sustain_FF_D6.opus
tune=-6
</region>

<region>
hivel=127
key=E4
loop_end=254380
loop_mode=loop_continuous
loop_start=82690
loop_xfade=20804
lovel=0
lpc=VFu6QaT2U8LozwhCLY7sPvE74cA9EQBB1KSnwDV0lMB6WCxBDEJbwY6UDUHgLpm/aXPvPy7WXb92nZXACbr+PxIEm0BGU1XAg2k9va3PI7/9M4w/Z/KivzHM4T91tU6/
lpc_rms=-24.67
sample=Flute2_sustain_FF_E4.opus
</region>

<region>
hivel=127
key=E5
loop_end=253065
loop_mode=loop_continuous
loop_start=82263
loop_xfade=20696
lovel=0
lpc=/BeOQRXQ9MHhPZlBfa9gwHwUDsH6o41BYF86wSTcLD9zHshArvd6wICu5z+n18G/W1Y4vo4p1L8SK69ALsxdwBJPfz9KkwJAyZblPeOVQr/qsC+/8iOXvjrV879lP4xA
lpc_rms=-25.66
sample=Flute2_sustain_FF_E5.opus
</region>

<region>
hivel=127
key=E6
loop_end=252552
loop_mode=loop_continuous
loop_start=82096
loop_xfade=20654
lovel=0
lpc=B9MzQi25NcJ2jbhBP9xRvxfMeMBpVBxB/Hi3QPmEFUBhh6ZAXsAlvrH3MEERxDzAwOoZQcqZ6j7swadAfuCGQJFiF0BWuNJAN+kCws1Q00F9eo5A8v0dwf32ZEEa4ezA
lpc_rms=-15.66
sample=Flute2_sustain_FF_E6.opus
tune=+3
</region>

<region>
hivel=127
key=F#4
loop_end=252551
loop_mode=loop_continuous
loop_start=82096
loop_xfade=20654
lovel=0
lpc=Cx9nQRtoBsJ81ttBjksCwdng1r8AGsdA49sHwWmdg0BFh1dAxlbMwKIgtUC6jarA2gxvQKTEEr8d0wvA+McAQGRJYT7XcIA/ECjzvzomjL+2Svk/ehCjvs9mqj2GPG+8
lpc_rms=-27.99
sample=Flute2_sustain_FF_F#4.opus
tune=-1
</region>

<region>
hivel=127
key=F#5
loop_end=251131
loop_mode=loop_continuous
loop_start=81634
loop_xfade=20538
lovel=0
lpc=D3VuQRhf0sF2+5dBT84XwI6WH8EORXhBD7vPwFkIqMBLTCtBuw7dwOkmHEBtLqg9lL4fQH4ocsCUtxRAQhFMQLt1hcAzTOU/0mpXQHl1kcAxvmdA7F5lvEsXUMD/CpBA
lpc_rms=-25.99
sample=Flute2_sustain_FF_F#5.opus
tune=-5
</region>

<region>
hivel=127
key=F#6
loop_end=255329
loop_mode=loop_continuous
loop_start=82999
loop_xfade=20881
lovel=0
lpc=+eAlQmxbHsJRgaJBtDtrQG4/psBRCD1B/mHBQPlmEcAfBwtBVPNIQPpXDkEP350/cIUPQciSd0BJKqhAdVcMQZucBML7sPRBNSMEQDoaHsE3WIlBlFkNwQxNmD9HtpZA
lpc_rms=-16.16
sample=Flute2_sustain_FF_F#6.opus
tune=-2
</region>

<region>
hivel=127
key=F4
loop_end=249289
loop_mode=loop_continuous
loop_start=81035
loop_xfade=20387
lovel=0
lpc=+66JQZOZJsLaihFCYexjwdcNyL/3nk9Bk1QmwfjKIMBviQRBZAQDwavSwkCyuDa/HgyZv+0+Ab2amZW/pU9Wv7GVW0Cblh7AKktcQEML/b+mg8+/w6IyP8bgST/OUiq+
lpc_rms=-26.23
sample=Flute2_sustain_FF_F4.opus
</region>

<region>
hivel=127
key=F5
loop_end=255140
loop_mode=loop_continuous
loop_start=82937
loop_xfade=20866
lovel=0
lpc=3B67QaBrMMJFyfVBHKM5vy0zdcFMIXNByMlIwEMj+sCVKQtB460MwE6MLkDpyKnAKgXnQE5GocAF4I8+kzKDQN5/6r+ctZE/O+v6vhGlO8Bk8bZA6iiOv5E1D8CD+E1A
lpc_rms=-21.71
sample=Flute2_sustain_FF_F5.opus
tune=+1
</region>

<region>
hivel=127
key=F6
loop_end=252682
loop_mode=loop_continuous
loop_start=82138
loop_xfade=20665
lovel=0
lpc=+9nbQduv8MHkN2ZB/sTIPd6OzMDenD5BVfTVv0RWVL85X4ZAVPzGvp0UhkCk2XS+PJdnQP/seT+UxeA/QGXjP/dyS0AsOrnBVsC1QcbqH8BtNaLAw985QUYmMsGBn6VA
lpc_rms=-19.40
sample=Flute2_sustain_FF_F6.opus
tune=+1
</region>

<region>
hivel=127
key=G#4
loop_end=250976
loop_mode=loop_continuous
loop_start=81584
loop_xfade=20525
lovel=0
lpc=q4huQVqsBMI597dBrROdwNEtGED3lg0/3kkiwEEMV8CFrelAt9LXwAhCmkBBtw/Aoc41QORpWcA5WDy+njPEPfSGSUCk8wbAYViDPySDeb/cuYA/HCaTv6Y7o77DU00/
lpc_rms=-25.53
sample=Flute2_sustain_FF_G#4.opus
tune=+1
</region>

<region>
hivel=127
key=G#5
loop_end=256641
loop_mode=loop_continuous
loop_start=83425
loop_xfade=20989
lovel=0
lpc=JBTOQQZXGsJPwdxBa+lMwEYiB8FHiFFBYhG5PZzsFcEue05BtW7TwMPPAEEdGjrAdt8TQABjAkBB7J2/L2MIQNHrOkD9f6m/GX+dQFJnk78T2YE/tFThP3P8tz2m2JFA
lpc_rms=-20.31
sample=Flute2_sustain_FF_G#5.opus
tune=+3
</region>

<region>
hivel=127
key=G#6
loop_end=255664
loop_mode=loop_continuous
loop_start=83108
loop_xfade=20909
lovel=0
lpc=+NZkQhv3GcIgk5NBi0YTQXGFIMFct/VBoIKWP+C91EBE+61Ba2KEQICgO0FALrtAAvQaQRBPVEGj2QLCHAu5QB5/w0HMS33BNPiNQXfD3cB4NQzBzRwgQQl+OsFtsci/
lpc_rms=-11.93
sample=Flute2_sustain_FF_G#6.opus
</region>

<region>
hivel=127
key=G4
loop_end=254696
loop_mode=loop_continuous
loop_start=82793
loop_xfade=20829
lovel=0
lpc=xP1/QageA8IocpRBkGORQJYbBcHBTZ5A2WtXwBXh9r/BNvdANbrpwAqlM0AiwJa/biryP9wyTr6W7njAgmp7QILOlD8C3QzApulovVQy7r+a0YRA+KZSPlRPvsAUyIhA
lpc_rms=-25.34
sample=Flute2_sustain_FF_G4.opus
</region>

<region>
hivel=127
key=G5
loop_end=252996
loop_mode=loop_continuous
loop_start=82241
loop_xfade=20690
lovel=0
lpc=z0k0QWzsjMEk3VFBa8AwwCx1g8AS2RpB8uDFwLpssr7wxYNAtZmcv7Af+z8wf4W/adcCP58kXL+SNGFAkT3QvonW0776trG+4IPTP4pC0r25ttk/s/WWP/UUl8CWMKtA
lpc_rms=-28.98
sample=Flute2_sustain_FF_G5.opus
tune=-2
</region>

<region>
hivel=127
key=G6
loop_end=246576
loop_mode=loop_continuous
loop_start=80153
loop_xfade=20165
lovel=0
lpc=HhM/QisSA8JPfvU/RmMjQQKGqsB0Z1dBXm1TQC1ooj/ZL3ZB69RiwJo3UUF9/9C+5BQEQSTtNkDMlkNB7NsTwvfqXUHwt61BPqMYwfYLGUEEr4LAYrSYv7E/dkAbkpXA
lpc_rms=-13.35
sample=Flute2_sustain_FF_G6.opus
tune=+2
</region>
</group>